<svg id="レイヤー_1" data-name="レイヤー 1" xmlns="http://www.w3.org/2000/svg" viewBox="0 0 95.65 58.59"><defs><style>.cls-1{fill:#b93931;}.cls-2{fill:#333332;}.cls-3{fill:#0da179;}.cls-4{fill:#585757;}</style></defs><title>アートボード 1</title><g id="bunner_light" data-name="bunner light"><path class="cls-1" d="M61.09,32.63H34.53A2.65,2.65,0,0,1,31.9,30V3.44A2.65,2.65,0,0,1,34.53.79H61.07a2.65,2.65,0,0,1,2.65,2.64h0V30a2.65,2.65,0,0,1-2.65,2.65h0"/><path class="cls-2" d="M61.09,33.42H34.53A3.44,3.44,0,0,1,31.11,30V3.44A3.44,3.44,0,0,1,34.53,0H61.07a3.44,3.44,0,0,1,3.46,3.42V30A3.44,3.44,0,0,1,61.09,33.42ZM34.53,1.58a1.86,1.86,0,0,0-1.86,1.86h0V30a1.87,1.87,0,0,0,1.86,1.85H61.07A1.86,1.86,0,0,0,63,30V3.44A1.86,1.86,0,0,0,61.1,1.58H34.53Z"/><path class="cls-3" d="M63.74,11.4h-8a2.65,2.65,0,0,1-2.65-2.65h0v-8h8A2.65,2.65,0,0,1,63.74,3.4h0Z"/><path class="cls-2" d="M64.53,12.19H55.77a3.44,3.44,0,0,1-3.43-3.44V0h8.75a3.44,3.44,0,0,1,3.44,3.44h0ZM53.92,1.58V8.76a1.86,1.86,0,0,0,1.86,1.86H63V3.44A1.86,1.86,0,0,0,61.1,1.58H53.92Z"/><path class="cls-4" d="M5.53,51.38a2.13,2.13,0,0,0-1.42-.44,2.65,2.65,0,0,0-1.27.28A2.3,2.3,0,0,0,2,52a3.27,3.27,0,0,0-.43,1,5.74,5.74,0,0,0-.13,1.24,5,5,0,0,0,.14,1.15,3.21,3.21,0,0,0,.44,1,2.25,2.25,0,0,0,.77.7A2.36,2.36,0,0,0,4,57.35a2.26,2.26,0,0,0,1.57-.53,2.46,2.46,0,0,0,.71-1.53H7.67a3.9,3.9,0,0,1-1.14,2.44A3.72,3.72,0,0,1,4,58.59a4.41,4.41,0,0,1-1.72-.31A3.26,3.26,0,0,1,1,57.39,3.89,3.89,0,0,1,.24,56,5.78,5.78,0,0,1,0,54.25a6.34,6.34,0,0,1,.25-1.79A4.2,4.2,0,0,1,1,51a3.5,3.5,0,0,1,1.26-1A4.26,4.26,0,0,1,4,49.65a5.17,5.17,0,0,1,1.36.17,3.23,3.23,0,0,1,1.12.54,2.77,2.77,0,0,1,.79.91,3.33,3.33,0,0,1,.4,1.31H6.23A2.11,2.11,0,0,0,5.53,51.38Z"/><path class="cls-4" d="M11.67,46.66v4.49h0a1.91,1.91,0,0,1,.46-.67,2.57,2.57,0,0,1,.7-.48,3.68,3.68,0,0,1,.77-.26,4.13,4.13,0,0,1,.78-.08,3.87,3.87,0,0,1,1.39.23,2.21,2.21,0,0,1,1.38,1.64,4.87,4.87,0,0,1,.14,1.26V58.4H15.91V52.65a1.67,1.67,0,0,0-.46-1.25,1.75,1.75,0,0,0-1.27-.47,2.8,2.8,0,0,0-1.11.2,2,2,0,0,0-.78.56,2.53,2.53,0,0,0-.47.85,3.45,3.45,0,0,0-.16,1.06v4.8H10.28V46.66Z"/><path class="cls-4" d="M27.61,58.37a1.92,1.92,0,0,1-1,.21,1.2,1.2,0,0,1-.86-.3,1.3,1.3,0,0,1-.32-1,3.25,3.25,0,0,1-1.34,1,4.62,4.62,0,0,1-2.75.17,2.72,2.72,0,0,1-.9-.41,2,2,0,0,1-.6-.73,2.44,2.44,0,0,1-.22-1.1A2.53,2.53,0,0,1,19.86,55a2.24,2.24,0,0,1,.65-.75,2.89,2.89,0,0,1,.92-.44c.35-.1.7-.18,1.06-.25s.73-.12,1.1-.17a5.59,5.59,0,0,0,.91-.16,1.49,1.49,0,0,0,.63-.31.76.76,0,0,0,.23-.6,1.47,1.47,0,0,0-.17-.74,1.21,1.21,0,0,0-.44-.43,1.9,1.9,0,0,0-.61-.2,4.91,4.91,0,0,0-.67-.05,3,3,0,0,0-1.48.34,1.42,1.42,0,0,0-.64,1.28H20a3.07,3.07,0,0,1,.33-1.33,2.56,2.56,0,0,1,.79-.88,3.35,3.35,0,0,1,1.13-.49,5.93,5.93,0,0,1,1.33-.12,8.74,8.74,0,0,1,1.14.08,3,3,0,0,1,1,.34,1.94,1.94,0,0,1,.74.71A2.31,2.31,0,0,1,26.75,52v4.37a2.92,2.92,0,0,0,.06.72c0,.15.17.23.39.23a1.55,1.55,0,0,0,.43-.07v1.09ZM25.34,54a1.91,1.91,0,0,1-.69.29q-.43.09-.9.15l-.95.13a3.35,3.35,0,0,0-.86.24,1.51,1.51,0,0,0-.62.47,1.29,1.29,0,0,0-.24.83,1.08,1.08,0,0,0,.14.58,1.12,1.12,0,0,0,.36.39,1.67,1.67,0,0,0,.52.21,2.7,2.7,0,0,0,.63.07,3.2,3.2,0,0,0,1.19-.19,2.36,2.36,0,0,0,.81-.47,1.79,1.79,0,0,0,.47-.62,1.53,1.53,0,0,0,.15-.63V54Z"/><path class="cls-4" d="M33.86,49.9v1.22h-1.7V56.4a1.34,1.34,0,0,0,0,.4.38.38,0,0,0,.16.23.76.76,0,0,0,.32.11h1.17V58.4h-1a4.86,4.86,0,0,1-.93-.07,1.32,1.32,0,0,1-.63-.27,1.14,1.14,0,0,1-.35-.56,3.34,3.34,0,0,1-.12-1V51.12H29.32V49.89h1.44V47.35h1.39V49.9Z"/><path class="cls-4" d="M38.82,46.66v4.39h0a2.13,2.13,0,0,1,1.09-1,4.1,4.1,0,0,1,3.34,0,3.49,3.49,0,0,1,1.28.94,4.26,4.26,0,0,1,.73,1.42,5.81,5.81,0,0,1,.27,1.75,6.19,6.19,0,0,1-.24,1.71,3.79,3.79,0,0,1-.76,1.41,3.34,3.34,0,0,1-1.22,1,4,4,0,0,1-1.7.35,4.15,4.15,0,0,1-.7-.07,3.44,3.44,0,0,1-.76-.21,2.82,2.82,0,0,1-.72-.4,2.19,2.19,0,0,1-.57-.64h0v1.14H37.43V46.66h1.39Zm5,6.25a3.08,3.08,0,0,0-.48-1,2.25,2.25,0,0,0-.82-.71,2.41,2.41,0,0,0-1.18-.27,2.31,2.31,0,0,0-2,1,3,3,0,0,0-.45,1,5,5,0,0,0,0,2.38,2.87,2.87,0,0,0,.47,1,2.4,2.4,0,0,0,.83.72,2.63,2.63,0,0,0,1.23.27A2.32,2.32,0,0,0,42.63,57a2.21,2.21,0,0,0,.78-.74,3.11,3.11,0,0,0,.43-1.05A5.56,5.56,0,0,0,44,54a4.08,4.08,0,0,0-.12-1.1Z"/><path class="cls-4" d="M47.92,52.41A4,4,0,0,1,48.71,51a3.71,3.71,0,0,1,1.3-1,4.79,4.79,0,0,1,3.57,0,3.76,3.76,0,0,1,1.29,1,3.86,3.86,0,0,1,.79,1.41,5.5,5.5,0,0,1,.26,1.75,5.4,5.4,0,0,1-.26,1.74,3.76,3.76,0,0,1-2.08,2.35,4.89,4.89,0,0,1-3.57,0,3.56,3.56,0,0,1-1.3-.94,4,4,0,0,1-.79-1.41,5.69,5.69,0,0,1-.26-1.74A5.8,5.8,0,0,1,47.92,52.41Zm1.42,3.13a2.92,2.92,0,0,0,.57,1,2.45,2.45,0,0,0,.85.62,2.53,2.53,0,0,0,2.9-.62,2.77,2.77,0,0,0,.57-1,4.61,4.61,0,0,0,0-2.75,2.92,2.92,0,0,0-.57-1,2.42,2.42,0,0,0-.85-.63,2.61,2.61,0,0,0-2.05,0,2.31,2.31,0,0,0-.85.63,2.92,2.92,0,0,0-.57,1A4.77,4.77,0,0,0,49.34,55.54Z"/><path class="cls-4" d="M57.53,49.9h1.79l2,3,2.12-3h1.68l-2.93,3.91,3.34,4.59H63.74l-2.37-3.52L59,58.4H57.31l3.22-4.47Z"/><path class="cls-4" d="M69.86,56.58V58.4H68V56.58Z"/><path class="cls-4" d="M73.37,48.37V46.66h1.39v1.71Zm1.39,1.53v8.5H73.37V49.9Z"/><path class="cls-4" d="M79.53,49.9v1.35h0a3,3,0,0,1,2.76-1.54,3.87,3.87,0,0,1,1.39.23,2.32,2.32,0,0,1,.9.64,2.34,2.34,0,0,1,.49,1,5.35,5.35,0,0,1,.14,1.26V58.4H83.82V52.65a1.58,1.58,0,0,0-1.44-1.72h-.31a2.8,2.8,0,0,0-1.11.2,2,2,0,0,0-.78.56,2.53,2.53,0,0,0-.47.85,3.45,3.45,0,0,0-.16,1.06v4.8H78.16V49.9Z"/><path class="cls-4" d="M93.47,51.38a2.13,2.13,0,0,0-1.42-.44,2.65,2.65,0,0,0-1.27.28A2.39,2.39,0,0,0,90,52a3.08,3.08,0,0,0-.44,1,5.74,5.74,0,0,0-.13,1.24,5,5,0,0,0,.14,1.15,3,3,0,0,0,.43,1,2.25,2.25,0,0,0,.77.7,2.36,2.36,0,0,0,1.14.26,2.28,2.28,0,0,0,1.62-.54,2.47,2.47,0,0,0,.72-1.53h1.43a3.9,3.9,0,0,1-1.18,2.43,3.72,3.72,0,0,1-2.58.86,4.41,4.41,0,0,1-1.72-.31,3.26,3.26,0,0,1-1.25-.89A4,4,0,0,1,88.16,56a5.79,5.79,0,0,1-.25-1.75,6.34,6.34,0,0,1,.25-1.79A4.18,4.18,0,0,1,88.91,51a3.5,3.5,0,0,1,1.26-1,4.26,4.26,0,0,1,1.76-.35,5.17,5.17,0,0,1,1.36.17,3.23,3.23,0,0,1,1.12.54,2.77,2.77,0,0,1,.79.91,3.33,3.33,0,0,1,.4,1.31H94.15A2.08,2.08,0,0,0,93.47,51.38Z"/></g></svg>