<svg height="30" viewBox="0 0 16 30" width="16" xmlns="http://www.w3.org/2000/svg"><path d="m451.234375 55.9316406c0-.1171881.024414-.2392572.073242-.3662109.048829-.1269538.12207-.2392573.219727-.3369141.195313-.1757821.429686-.2636718.703125-.2636718s.507811.0878897.703125.2636718l13.242187 13.2421875 13.03711-13.0371093c.195313-.1953135.429686-.2929688.703125-.2929688.273438 0 .507811.0976553.703125.2929688.195313.1953134.292968.4296861.292968.703125 0 .2734388-.097655.5078115-.292968.703125l-13.740235 13.7402343c-.195313.1953135-.429686.2929688-.703125.2929688s-.507811-.0976553-.703125-.2929688l-13.945312-13.9160156c-.097657-.0976567-.170898-.2099603-.219727-.3369141-.048828-.1269537-.073242-.2587883-.073242-.3955078z" fill="#fff" fill-rule="evenodd" transform="matrix(0 -1 1 0 -54.845703 480.992187)"/></svg>