<svg viewBox="0 0 38.07 38.11" xmlns="http://www.w3.org/2000/svg"><path d="m35.57 19.6a8.5 8.5 0 0 0 -5.72-2.5h-4.58a8.46 8.46 0 0 0 6.43-2.49 8.56 8.56 0 1 0 -14.6-6.39v4.62a8.46 8.46 0 0 0 -2.49-6.43 8.56 8.56 0 1 0 -6.39 14.59h4.58a8.49 8.49 0 0 0 -6.43 2.5 8.56 8.56 0 1 0 14.63 6.39v-4.62a8.47 8.47 0 0 0 2.5 6.43 8.56 8.56 0 0 0 12.1-12.1zm-26.28-2.49h-1.23a4.67 4.67 0 1 1 5.13-5.11v9a3.91 3.91 0 0 0 -3.9-3.9zm7.79 11.76v1.23a4.67 4.67 0 1 1 -7.94-3.8 4.57 4.57 0 0 1 2.79-1.33h9a3.9 3.9 0 0 0 -3.86 3.85zm3.92-7.87h-3.9v-3.9h3.9zm0-7.81h-3.9a3.91 3.91 0 0 0 3.9-3.9v-1.23a4.67 4.67 0 1 1 5.14 5.13zm11.82 15.81a4.67 4.67 0 0 1 -7.94-2.8v-9a3.91 3.91 0 0 0 3.91 3.8h1.21a4.61 4.61 0 0 1 2.8 1.34 4.67 4.67 0 0 1 .02 6.66z" fill="#fff"/></svg>