<svg xmlns="http://www.w3.org/2000/svg" width="27" height="18.563" viewBox="0 0 27 18.563">
  <path id="icon_mail" d="M24.89,18.563H2.953a2.835,2.835,0,0,1-2-.949,2.835,2.835,0,0,1-.949-2V2A.233.233,0,0,1,.026,1.9a.611.611,0,0,1,0-.355.955.955,0,0,1,.184-.329.393.393,0,0,0,.053-.067.208.208,0,0,1,.079-.066,2.463,2.463,0,0,1,1.121-.8A4.167,4.167,0,0,1,2.953,0H24.89a2.349,2.349,0,0,1,1.358.356,1.687,1.687,0,0,1,.672,1.067.643.643,0,0,1,.066.224.825.825,0,0,1-.013.25A.246.246,0,0,1,27,2V15.61a4.078,4.078,0,0,1-.527,2A1.711,1.711,0,0,1,24.89,18.563ZM1.688,3.533V15.61a1.267,1.267,0,0,0,.462.8,1.267,1.267,0,0,0,.8.462H24.89c.228,0,.357-.155.382-.462s.04-.579.04-.8V3.533L14.053,12.524a1.039,1.039,0,0,1-.264.158.831.831,0,0,1-.58,0,1.039,1.039,0,0,1-.264-.158Zm.87-1.846a3.551,3.551,0,0,0-.422.026L13.5,10.784l11.39-9.1Z" transform="translate(0)" fill="#c3504f"/>
</svg>
