<svg height="18.563" viewBox="0 0 27 18.563" width="27" xmlns="http://www.w3.org/2000/svg"><path d="m24.89 18.563h-21.937a2.835 2.835 0 0 1 -2-.949 2.835 2.835 0 0 1 -.949-2v-13.614a.233.233 0 0 1 .022-.1.611.611 0 0 1 0-.355.955.955 0 0 1 .184-.329.393.393 0 0 0 .053-.067.208.208 0 0 1 .079-.066 2.463 2.463 0 0 1 1.121-.8 4.167 4.167 0 0 1 1.49-.283h21.937a2.349 2.349 0 0 1 1.358.356 1.687 1.687 0 0 1 .672 1.067.643.643 0 0 1 .066.224.825.825 0 0 1 -.013.25.246.246 0 0 1 .027.103v13.61a4.078 4.078 0 0 1 -.527 2 1.711 1.711 0 0 1 -1.583.953zm-23.202-15.03v12.077a1.267 1.267 0 0 0 .462.8 1.267 1.267 0 0 0 .8.462h21.94c.228 0 .357-.155.382-.462s.04-.579.04-.8v-12.077l-11.259 8.991a1.039 1.039 0 0 1 -.264.158.831.831 0 0 1 -.58 0 1.039 1.039 0 0 1 -.264-.158zm.87-1.846a3.551 3.551 0 0 0 -.422.026l11.364 9.071 11.39-9.1z" fill="#c3504f"/></svg>