<svg height="33" viewBox="0 0 33 33" width="33" xmlns="http://www.w3.org/2000/svg"><path d="m29.464 32h-25.928a3.537 3.537 0 0 0 -3.536 3.536v25.928a3.537 3.537 0 0 0 3.536 3.536h25.928a3.537 3.537 0 0 0 3.536-3.536v-25.928a3.537 3.537 0 0 0 -3.536-3.536zm-3.6 11.7c.015.206.015.42.015.626a13.651 13.651 0 0 1 -13.747 13.743 13.682 13.682 0 0 1 -7.418-2.169 10.178 10.178 0 0 0 1.164.059 9.686 9.686 0 0 0 6-2.062 4.837 4.837 0 0 1 -4.515-3.352 5.207 5.207 0 0 0 2.18-.088 4.831 4.831 0 0 1 -3.867-4.744v-.059a4.828 4.828 0 0 0 2.18.611 4.821 4.821 0 0 1 -2.156-4.019 4.771 4.771 0 0 1 .656-2.438 13.717 13.717 0 0 0 9.959 5.053 4.841 4.841 0 0 1 8.243-4.412 9.467 9.467 0 0 0 3.064-1.164 4.818 4.818 0 0 1 -2.122 2.659 9.614 9.614 0 0 0 2.784-.751 10.169 10.169 0 0 1 -2.422 2.507z" fill="#c3504f" transform="translate(0 -32)"/></svg>