<svg xmlns="http://www.w3.org/2000/svg" width="33" height="33" viewBox="0 0 33 33">
  <path id="twitter-square-brands" d="M29.464,32H3.536A3.537,3.537,0,0,0,0,35.536V61.464A3.537,3.537,0,0,0,3.536,65H29.464A3.537,3.537,0,0,0,33,61.464V35.536A3.537,3.537,0,0,0,29.464,32Zm-3.6,11.7c.015.206.015.42.015.626A13.651,13.651,0,0,1,12.132,58.069,13.682,13.682,0,0,1,4.714,55.9a10.178,10.178,0,0,0,1.164.059,9.686,9.686,0,0,0,6-2.062,4.837,4.837,0,0,1-4.515-3.352,5.207,5.207,0,0,0,2.18-.088,4.831,4.831,0,0,1-3.867-4.744v-.059a4.828,4.828,0,0,0,2.18.611A4.821,4.821,0,0,1,5.7,42.246a4.771,4.771,0,0,1,.656-2.438,13.717,13.717,0,0,0,9.959,5.053,4.841,4.841,0,0,1,8.243-4.412,9.467,9.467,0,0,0,3.064-1.164A4.818,4.818,0,0,1,25.5,41.944a9.614,9.614,0,0,0,2.784-.751A10.169,10.169,0,0,1,25.862,43.7Z" transform="translate(0 -32)" fill="#c3504f"/>
</svg>
